<?xml version="1.0" encoding="utf-8"?>
<!-- Generator: Adobe Illustrator 19.0.0, SVG Export Plug-In . SVG Version: 6.00 Build 0)  -->
<svg version="1.1" id="Layer_1" xmlns="http://www.w3.org/2000/svg" xmlns:xlink="http://www.w3.org/1999/xlink" x="0px" y="0px"
	 viewBox="0 0 960 560" style="enable-background:new 0 0 960 560;" xml:space="preserve">
<linearGradient id="XMLID_196_" gradientUnits="userSpaceOnUse" x1="-2230" y1="280" x2="-1270" y2="280">
	<stop  offset="0" style="stop-color:#9D14AF"/>
	<stop  offset="0.29" style="stop-color:#B753AB"/>
	<stop  offset="1" style="stop-color:#D4145A"/>
</linearGradient>
<linearGradient id="XMLID_198_" gradientUnits="userSpaceOnUse" x1="-2230.5" y1="280" x2="-1269.5" y2="280">
	<stop  offset="0" style="stop-color:#7614AF"/>
	<stop  offset="0.12" style="stop-color:#8647A1"/>
	<stop  offset="1" style="stop-color:#DE1E64"/>
</linearGradient>
<rect id="XMLID_1_" x="-2230" style="display:none;fill:url(#XMLID_196_);stroke:url(#XMLID_198_);stroke-miterlimit:10;" width="960" height="560"/>
<rect id="XMLID_7_" x="-2230" style="fill:#282C34;" width="960" height="560"/>
<g id="XMLID_23_" style="opacity:0.75;">
	<g id="XMLID_44_">
		<defs>
			<rect id="XMLID_45_" x="-2230" width="960" height="560"/>
		</defs>
		<clipPath id="XMLID_200_">
			<use xlink:href="#XMLID_45_"  style="overflow:visible;"/>
		</clipPath>
		<g style="clip-path:url(#XMLID_200_);">
			
				<image style="overflow:visible;" width="1600" height="870" id="XMLID_46_" xlink:href="C:\Users\bjama\Desktop\English\Capture2.PNG"  transform="matrix(0.6437 0 0 0.6437 -2264.9426 0)">
			</image>
		</g>
	</g>
</g>
<text id="XMLID_2_" transform="matrix(1 0 0 1 -1962.7577 160.4057)"><tspan x="0" y="0" style="opacity:0.75;fill:#FFFFFF; font-family:'FuturaLT-Book'; font-size:45px;">c:\users\jamal&gt;</tspan><tspan x="0" y="86.4" style="fill:#FFFFFF; font-family:'FuturaLT-Bold'; font-size:72px;">WHO AM I</tspan><tspan x="0" y="172.8" style="fill:#FFFFFF; font-family:'FuturaLT-Bold'; font-size:72px;">I am Djam</tspan></text>
<line id="XMLID_3_" style="opacity:0.55;fill:none;stroke:#FFFFFF;stroke-miterlimit:10;" x1="-2067" y1="429.5" x2="-1433" y2="429.5"/>
<text id="XMLID_4_" transform="matrix(1 0 0 1 -2067.0002 468.0772)" style="opacity:0.75;fill:#FFFFFF; font-family:'FuturaLT-Book'; font-size:21px;">BELILET Djamaleddine</text>
<text id="XMLID_5_" transform="matrix(1 0 0 1 -1555.4072 468.0771)" style="opacity:0.75;fill:#FFFFFF; font-family:'FuturaLT-Book'; font-size:21px;">@JamalBelilet</text>
<g id="XMLID_6_">
	
		<text id="XMLID_294_" transform="matrix(4.489659e-011 3.8896 -1 1.746311e-010 -1551.2908 284.4863)" style="opacity:0.75;fill:#FFFFFF; font-family:'FuturaLT-Bold'; font-size:35.2475px;">|</text>
</g>
<g id="XMLID_11_" style="opacity:0.55;">
	<polyline id="XMLID_9_" style="fill:none;stroke:#FFFFFF;stroke-width:5;stroke-miterlimit:10;" points="-1394,68 -1357.9,92.3 
		-1394,117.5 	"/>
	
		<line id="XMLID_10_" style="fill:none;stroke:#FFFFFF;stroke-width:5;stroke-miterlimit:10;" x1="-1370" y1="118.5" x2="-1342" y2="118.5"/>
</g>
<g id="XMLID_19_" style="opacity:0.55;">
	<polyline id="XMLID_22_" style="fill:none;stroke:#FFFFFF;stroke-width:3;stroke-miterlimit:10;" points="-2129.1,332.5 
		-2115.1,341.9 -2129.1,351.6 	"/>
	
		<line id="XMLID_21_" style="fill:none;stroke:#FFFFFF;stroke-width:3;stroke-miterlimit:10;" x1="-2120" y1="353.5" x2="-2109" y2="353.5"/>
</g>
<g id="XMLID_16_" style="opacity:0.55;">
	<polyline id="XMLID_18_" style="fill:none;stroke:#FFFFFF;stroke-width:5;stroke-miterlimit:10;" points="-1702,485.8 
		-1674.3,504.5 -1702,523.9 	"/>
	
		<line id="XMLID_17_" style="fill:none;stroke:#FFFFFF;stroke-width:5;stroke-miterlimit:10;" x1="-1684" y1="524.5" x2="-1662" y2="524.5"/>
</g>
<g id="XMLID_13_" style="opacity:0.55;">
	<polyline id="XMLID_15_" style="fill:none;stroke:#FFFFFF;stroke-width:2;stroke-miterlimit:10;" points="-1446,160 -1433.5,168.4 
		-1446,177.2 	"/>
	
		<line id="XMLID_14_" style="fill:none;stroke:#FFFFFF;stroke-width:2;stroke-miterlimit:10;" x1="-1438" y1="179" x2="-1428" y2="179"/>
</g>
<rect id="XMLID_55_" x="-1116" style="fill:#282C34;" width="960" height="560"/>
<g id="XMLID_48_" style="opacity:0.75;">
	<g id="XMLID_50_">
		<defs>
			<rect id="XMLID_51_" x="-1116" width="960" height="560"/>
		</defs>
		<clipPath id="XMLID_201_">
			<use xlink:href="#XMLID_51_"  style="overflow:visible;"/>
		</clipPath>
		<g style="clip-path:url(#XMLID_201_);">
			
				<image style="overflow:visible;" width="1600" height="870" id="XMLID_52_" xlink:href="C:\Users\bjama\Desktop\English\Capture2.PNG"  transform="matrix(0.6437 0 0 0.6437 -1150.9425 0)">
			</image>
		</g>
	</g>
</g>
<text id="XMLID_47_" transform="matrix(1 0 0 1 -848.7578 160.4058)"><tspan x="0" y="0" style="opacity:0.75;fill:#FFFFFF; font-family:'FuturaLT-Book'; font-size:45px;">c:\users\jamal&gt;</tspan><tspan x="0" y="86.4" style="fill:#FFFFFF; font-family:'FuturaLT-Bold'; font-size:72px;">MOVIES</tspan><tspan x="0" y="172.8" style="fill:#FFFFFF; font-family:'FuturaLT-Bold'; font-size:72px;">Undefned</tspan></text>
<line id="XMLID_43_" style="opacity:0.55;fill:none;stroke:#FFFFFF;stroke-miterlimit:10;" x1="-953" y1="429.5" x2="-319" y2="429.5"/>
<text id="XMLID_41_" transform="matrix(1 0 0 1 -953.0002 468.0772)" style="opacity:0.75;fill:#FFFFFF; font-family:'FuturaLT-Book'; font-size:21px;">BELILET Djamaleddine</text>
<text id="XMLID_40_" transform="matrix(1 0 0 1 -441.4072 468.0771)" style="opacity:0.75;fill:#FFFFFF; font-family:'FuturaLT-Book'; font-size:21px;">@JamalBelilet</text>
<g id="XMLID_39_">
	
		<text id="XMLID_295_" transform="matrix(4.489659e-011 3.8896 -1 1.746311e-010 -437.2908 284.4863)" style="opacity:0.75;fill:#FFFFFF; font-family:'FuturaLT-Bold'; font-size:35.2475px;">|</text>
</g>
<g id="XMLID_34_" style="opacity:0.55;">
	<polyline id="XMLID_37_" style="fill:none;stroke:#FFFFFF;stroke-width:5;stroke-miterlimit:10;" points="-280,68 -243.9,92.3 
		-280,117.5 	"/>
	
		<line id="XMLID_36_" style="fill:none;stroke:#FFFFFF;stroke-width:5;stroke-miterlimit:10;" x1="-256" y1="118.5" x2="-228" y2="118.5"/>
</g>
<g id="XMLID_31_" style="opacity:0.55;">
	<polyline id="XMLID_33_" style="fill:none;stroke:#FFFFFF;stroke-width:3;stroke-miterlimit:10;" points="-1015.1,332.5 
		-1001.1,341.9 -1015.1,351.6 	"/>
	
		<line id="XMLID_32_" style="fill:none;stroke:#FFFFFF;stroke-width:3;stroke-miterlimit:10;" x1="-1006" y1="353.5" x2="-995" y2="353.5"/>
</g>
<g id="XMLID_28_" style="opacity:0.55;">
	<polyline id="XMLID_30_" style="fill:none;stroke:#FFFFFF;stroke-width:5;stroke-miterlimit:10;" points="-588,485.8 -560.3,504.5 
		-588,523.9 	"/>
	
		<line id="XMLID_29_" style="fill:none;stroke:#FFFFFF;stroke-width:5;stroke-miterlimit:10;" x1="-570" y1="524.5" x2="-548" y2="524.5"/>
</g>
<g id="XMLID_25_" style="opacity:0.55;">
	<polyline id="XMLID_27_" style="fill:none;stroke:#FFFFFF;stroke-width:2;stroke-miterlimit:10;" points="-332,160 -319.5,168.4 
		-332,177.2 	"/>
	
		<line id="XMLID_26_" style="fill:none;stroke:#FFFFFF;stroke-width:2;stroke-miterlimit:10;" x1="-324" y1="179" x2="-314" y2="179"/>
</g>
<g id="XMLID_90_">
	<rect id="XMLID_266_" style="display:none;fill:#282C34;" width="960" height="560"/>
	<g id="XMLID_259_" style="display:none;opacity:0.75;">
		<g id="XMLID_308_" style="display:inline;">
			<defs>
				<rect id="XMLID_309_" width="960" height="560"/>
			</defs>
			<clipPath id="XMLID_250_">
				<use xlink:href="#XMLID_309_"  style="overflow:visible;"/>
			</clipPath>
			<g style="clip-path:url(#XMLID_250_);">
				
					<image style="overflow:visible;" width="1600" height="870" id="XMLID_310_" xlink:href="C:\Users\bjama\Desktop\English\Capture2.PNG"  transform="matrix(0.6437 0 0 0.6437 -34.9425 0)">
				</image>
			</g>
		</g>
	</g>
	<g id="XMLID_249_" style="opacity:0.55;">
		<polyline id="XMLID_252_" style="fill:none;stroke:#FFFFFF;stroke-width:5;stroke-miterlimit:10;" points="836,68 872.1,92.3 
			836,117.5 		"/>
		
			<line id="XMLID_251_" style="fill:none;stroke:#FFFFFF;stroke-width:5;stroke-miterlimit:10;" x1="860" y1="118.5" x2="888" y2="118.5"/>
	</g>
	<g id="XMLID_246_" style="opacity:0.55;">
		<polyline id="XMLID_248_" style="fill:none;stroke:#FFFFFF;stroke-width:3;stroke-miterlimit:10;" points="100.9,332.5 
			114.9,341.9 100.9,351.6 		"/>
		
			<line id="XMLID_247_" style="fill:none;stroke:#FFFFFF;stroke-width:3;stroke-miterlimit:10;" x1="110" y1="353.5" x2="121" y2="353.5"/>
	</g>
	<g id="XMLID_243_" style="opacity:0.55;">
		<polyline id="XMLID_245_" style="fill:none;stroke:#FFFFFF;stroke-width:5;stroke-miterlimit:10;" points="528,485.8 555.7,504.5 
			528,523.9 		"/>
		
			<line id="XMLID_244_" style="fill:none;stroke:#FFFFFF;stroke-width:5;stroke-miterlimit:10;" x1="546" y1="524.5" x2="568" y2="524.5"/>
	</g>
	<g id="XMLID_147_" style="opacity:0.55;">
		<polyline id="XMLID_242_" style="fill:none;stroke:#FFFFFF;stroke-width:2;stroke-miterlimit:10;" points="784,160 796.5,168.4 
			784,177.2 		"/>
		
			<line id="XMLID_241_" style="fill:none;stroke:#FFFFFF;stroke-width:2;stroke-miterlimit:10;" x1="792" y1="179" x2="802" y2="179"/>
	</g>
</g>
<rect id="XMLID_108_" x="-1116" y="645" style="fill:#282C34;" width="960" height="560"/>
<g id="XMLID_101_" style="opacity:0.75;">
	<g id="XMLID_103_">
		<defs>
			<rect id="XMLID_104_" x="-1116" y="645" width="960" height="560"/>
		</defs>
		<clipPath id="XMLID_253_">
			<use xlink:href="#XMLID_104_"  style="overflow:visible;"/>
		</clipPath>
		<g style="clip-path:url(#XMLID_253_);">
			
				<image style="overflow:visible;" width="1600" height="870" id="XMLID_105_" xlink:href="C:\Users\bjama\Desktop\English\Capture2.PNG"  transform="matrix(0.6437 0 0 0.6437 -1150.9425 645)">
			</image>
		</g>
	</g>
</g>
<text id="XMLID_100_" transform="matrix(1 0 0 1 -848.7577 805.4058)"><tspan x="0" y="0" style="opacity:0.75;fill:#FFFFFF; font-family:'FuturaLT-Book'; font-size:45px;">c:\users\jamal&gt;</tspan><tspan x="0" y="86.4" style="fill:#FFFFFF; font-family:'FuturaLT-Bold'; font-size:72px;">ANIMS</tspan><tspan x="0" y="172.8" style="fill:#FFFFFF; font-family:'FuturaLT-Bold'; font-size:72px;">Undefned</tspan></text>
<line id="XMLID_99_" style="opacity:0.55;fill:none;stroke:#FFFFFF;stroke-miterlimit:10;" x1="-953" y1="1074.5" x2="-319" y2="1074.5"/>
<text id="XMLID_98_" transform="matrix(1 0 0 1 -953.0002 1113.0771)" style="opacity:0.75;fill:#FFFFFF; font-family:'FuturaLT-Book'; font-size:21px;">BELILET Djamaleddine</text>
<text id="XMLID_97_" transform="matrix(1 0 0 1 -441.4072 1113.0771)" style="opacity:0.75;fill:#FFFFFF; font-family:'FuturaLT-Book'; font-size:21px;">@JamalBelilet</text>
<g id="XMLID_96_">
	
		<text id="XMLID_281_" transform="matrix(4.489659e-011 3.8896 -1 1.746311e-010 -437.2908 929.4863)" style="opacity:0.75;fill:#FFFFFF; font-family:'FuturaLT-Bold'; font-size:35.2475px;">|</text>
</g>
<g id="XMLID_89_" style="opacity:0.55;">
	<polyline id="XMLID_93_" style="fill:none;stroke:#FFFFFF;stroke-width:5;stroke-miterlimit:10;" points="-280,713 -243.9,737.3 
		-280,762.5 	"/>
	
		<line id="XMLID_92_" style="fill:none;stroke:#FFFFFF;stroke-width:5;stroke-miterlimit:10;" x1="-256" y1="763.5" x2="-228" y2="763.5"/>
</g>
<g id="XMLID_86_" style="opacity:0.55;">
	<polyline id="XMLID_88_" style="fill:none;stroke:#FFFFFF;stroke-width:3;stroke-miterlimit:10;" points="-1015.1,977.5 
		-1001.1,986.9 -1015.1,996.6 	"/>
	
		<line id="XMLID_87_" style="fill:none;stroke:#FFFFFF;stroke-width:3;stroke-miterlimit:10;" x1="-1006" y1="998.5" x2="-995" y2="998.5"/>
</g>
<g id="XMLID_83_" style="opacity:0.55;">
	<polyline id="XMLID_85_" style="fill:none;stroke:#FFFFFF;stroke-width:5;stroke-miterlimit:10;" points="-588,1130.8 
		-560.3,1149.5 -588,1168.9 	"/>
	
		<line id="XMLID_84_" style="fill:none;stroke:#FFFFFF;stroke-width:5;stroke-miterlimit:10;" x1="-570" y1="1169.5" x2="-548" y2="1169.5"/>
</g>
<g id="XMLID_38_" style="opacity:0.55;">
	<polyline id="XMLID_70_" style="fill:none;stroke:#FFFFFF;stroke-width:2;stroke-miterlimit:10;" points="-332,805 -319.5,813.4 
		-332,822.2 	"/>
	
		<line id="XMLID_67_" style="fill:none;stroke:#FFFFFF;stroke-width:2;stroke-miterlimit:10;" x1="-324" y1="824" x2="-314" y2="824"/>
</g>
<rect id="XMLID_161_" x="-1116" y="1312" style="fill:#282C34;" width="960" height="560"/>
<g id="XMLID_154_" style="opacity:0.75;">
	<g id="XMLID_156_">
		<defs>
			<rect id="XMLID_157_" x="-1116" y="1312" width="960" height="560"/>
		</defs>
		<clipPath id="XMLID_254_">
			<use xlink:href="#XMLID_157_"  style="overflow:visible;"/>
		</clipPath>
		<g style="clip-path:url(#XMLID_254_);">
			
				<image style="overflow:visible;" width="1600" height="870" id="XMLID_158_" xlink:href="C:\Users\bjama\Desktop\English\Capture2.PNG"  transform="matrix(0.6437 0 0 0.6437 -1150.9425 1312)">
			</image>
		</g>
	</g>
</g>
<text id="XMLID_153_" transform="matrix(1 0 0 1 -848.7577 1472.4058)"><tspan x="0" y="0" style="opacity:0.75;fill:#FFFFFF; font-family:'FuturaLT-Book'; font-size:45px;">c:\users\jamal&gt;</tspan><tspan x="0" y="86.4" style="fill:#FFFFFF; font-family:'FuturaLT-Bold'; font-size:72px;">GAMES</tspan><tspan x="0" y="172.8" style="fill:#FFFFFF; font-family:'FuturaLT-Bold'; font-size:72px;">Undefned</tspan></text>
<line id="XMLID_152_" style="opacity:0.55;fill:none;stroke:#FFFFFF;stroke-miterlimit:10;" x1="-953" y1="1741.5" x2="-319" y2="1741.5"/>
<text id="XMLID_151_" transform="matrix(1 0 0 1 -953.0002 1780.0771)" style="opacity:0.75;fill:#FFFFFF; font-family:'FuturaLT-Book'; font-size:21px;">BELILET Djamaleddine</text>
<text id="XMLID_150_" transform="matrix(1 0 0 1 -441.4072 1780.0771)" style="opacity:0.75;fill:#FFFFFF; font-family:'FuturaLT-Book'; font-size:21px;">@JamalBelilet</text>
<g id="XMLID_149_">
	
		<text id="XMLID_296_" transform="matrix(4.489659e-011 3.8896 -1 1.746311e-010 -437.2908 1596.4863)" style="opacity:0.75;fill:#FFFFFF; font-family:'FuturaLT-Bold'; font-size:35.2475px;">|</text>
</g>
<g id="XMLID_142_" style="opacity:0.55;">
	<polyline id="XMLID_146_" style="fill:none;stroke:#FFFFFF;stroke-width:5;stroke-miterlimit:10;" points="-280,1380 
		-243.9,1404.3 -280,1429.5 	"/>
	
		<line id="XMLID_145_" style="fill:none;stroke:#FFFFFF;stroke-width:5;stroke-miterlimit:10;" x1="-256" y1="1430.5" x2="-228" y2="1430.5"/>
</g>
<g id="XMLID_139_" style="opacity:0.55;">
	<polyline id="XMLID_141_" style="fill:none;stroke:#FFFFFF;stroke-width:3;stroke-miterlimit:10;" points="-1015.1,1644.5 
		-1001.1,1653.9 -1015.1,1663.6 	"/>
	
		<line id="XMLID_140_" style="fill:none;stroke:#FFFFFF;stroke-width:3;stroke-miterlimit:10;" x1="-1006" y1="1665.5" x2="-995" y2="1665.5"/>
</g>
<g id="XMLID_136_" style="opacity:0.55;">
	<polyline id="XMLID_138_" style="fill:none;stroke:#FFFFFF;stroke-width:5;stroke-miterlimit:10;" points="-588,1797.8 
		-560.3,1816.5 -588,1835.9 	"/>
	
		<line id="XMLID_137_" style="fill:none;stroke:#FFFFFF;stroke-width:5;stroke-miterlimit:10;" x1="-570" y1="1836.5" x2="-548" y2="1836.5"/>
</g>
<g id="XMLID_95_" style="opacity:0.55;">
	<polyline id="XMLID_123_" style="fill:none;stroke:#FFFFFF;stroke-width:2;stroke-miterlimit:10;" points="-332,1472 
		-319.5,1480.4 -332,1489.2 	"/>
	
		<line id="XMLID_120_" style="fill:none;stroke:#FFFFFF;stroke-width:2;stroke-miterlimit:10;" x1="-324" y1="1491" x2="-314" y2="1491"/>
</g>
</svg>
