<?xml version="1.0"?>
<svg xmlns="http://www.w3.org/2000/svg" xmlns:xlink="http://www.w3.org/1999/xlink" version="1.1" id="Capa_1" x="0px" y="0px" viewBox="0 0 475.429 475.429" style="enable-background:new 0 0 475.429 475.429;" xml:space="preserve" width="512px" height="512px" class=""><g><g>
	<g>
		<path d="M464.98,86.204H26.122c-5.771,0-10.449,4.678-10.449,10.449s4.678,10.449,10.449,10.449h86.727L54.857,296.229    l-7.837-1.045c-25.969,0-47.02,21.052-47.02,47.02c0,25.969,21.052,47.02,47.02,47.02c25.851-0.283,46.738-21.17,47.02-47.02    c0.01-15.193-7.402-29.433-19.853-38.139l60.604-196.963h48.065v189.649c-21.361,4.668-36.584,23.588-36.571,45.453    c0,25.969,21.052,47.02,47.02,47.02c25.969,0,47.02-21.052,47.02-47.02c0.013-21.865-15.21-40.785-36.571-45.453V107.102h78.367    v189.649c-21.361,4.668-36.584,23.588-36.571,45.453c0,25.969,21.052,47.02,47.02,47.02c25.969,0,47.02-21.052,47.02-47.02    c0.013-21.865-15.21-40.785-36.571-45.453V107.102h78.367v189.649c-21.361,4.668-36.584,23.588-36.571,45.453    c0,25.969,21.052,47.02,47.02,47.02s47.02-21.052,47.02-47.02c0.013-21.865-15.21-40.785-36.571-45.453V107.102h62.694    c5.771,0,10.449-4.678,10.449-10.449S470.75,86.204,464.98,86.204z M47.02,368.327c-14.427,0-26.122-11.695-26.122-26.122    c0-14.427,11.695-26.122,26.122-26.122c14.427,0,26.122,11.695,26.122,26.122C73.143,356.631,61.447,368.327,47.02,368.327z     M219.429,342.204c-0.278,14.31-11.812,25.844-26.122,26.122c-14.427,0-26.122-11.695-26.122-26.122    c0-14.427,11.695-26.122,26.122-26.122C207.616,316.36,219.151,327.894,219.429,342.204z M318.694,342.204    c-0.278,14.31-11.812,25.844-26.122,26.122c-14.427,0-26.122-11.695-26.122-26.122c0-14.427,11.695-26.122,26.122-26.122    C306.882,316.36,318.416,327.894,318.694,342.204z M417.959,342.204c-0.278,14.31-11.812,25.844-26.122,26.122    c-14.427,0-26.122-11.695-26.122-26.122c0-14.427,11.695-26.122,26.122-26.122C406.147,316.36,417.681,327.894,417.959,342.204z" data-original="#eeeeee" class="active-path" data-old_color="#eeeeeefill:#eeeeeefill:#eeeeeefill:#eeeeeefill:#eeeeeefill:#eeeeeefill:#eeeeeefill:#eeeeeefill:#eeeeeefill:#eeeeeefill:#eeeeeefill:#eeeeeefill:#eeeeeefill:#eeeeeefill:#eeeeeefill:#eeeeeefill:#eeeeeefill:#E2C5C5fill:#eeeeeefill:#E2C8C8fill:#eeeeeefill:#E2C9C9fill:#eeeeeefill:#E4CFCFfill:#eeeeeefill:#E6D2D2fill:#eeeeeefill:#E9D7D7fill:#eeeeeefill:#EDDCDCfill:#eeeeeefill:#EFE0E0fill:#eeeeeefill:#F3E5E5fill:#eeeeeefill:#F6E9E9fill:#eeeeeefill:#F7ECECfill:#eeeeeefill:#F8EEEEfill:#eeeeeefill:#eeeeeefill:#F8EEEEfill:#F8EEEEfill:#F8EEEEfill:#eeeeeefill:#eeeeeefill:#eeeeeefill:#eeeeeefill:#eeeeeefill:#eeeeeefill:#eeeeeefill:#eeeeeefill:#eeeeeefill:#eeeeeefill:#eeeeeefill:#eeeeeefill:#eeeeeefill:#eeeeeefill:#eeeeeefill:#eeeeeefill:#eeeeeefill:#eeeeeefill:#eeeeeefill:#eeeeeefill:#eeeeeefill:#eeeeeefill:#eeeeeefill:#eeeeeefill:#eeeeeefill:#eeeeeefill:#eeeeeefill:#eeeeeefill:#eeeeeefill:#eeeeeefill:#eeeeeefill:#eeeeeefill:#eeeeeefill:#eeeeeefill:#EAB8B8fill:#eeeeeefill:#EABABAfill:#eeeeeefill:#E8BCBCfill:#eeeeeefill:#E8C4C4fill:#eeeeeefill:#E8C6C6fill:#eeeeeefill:#E8CACAfill:#eeeeeefill:#E9D3D3fill:#eeeeeefill:#EDDDDDfill:#eeeeeefill:#EEE0E0fill:#eeeeeefill:#F0E5E5fill:#eeeeeefill:#eeeeeefill:#F0E5E5fill:#F0E5E5fill:#F0E5E5fill:#eeeeeefill:#eeeeeefill:#eeeeeefill:#eeeeeefill:#eeeeeefill:#eeeeeefill:#eeeeeefill:#eeeeeefill:#eeeeeefill:#eeeeeefill:#eeeeeefill:#eeeeeefill:#eeeeeefill:#eeeeeefill:#eeeeeefill:#eeeeeefill:#eeeeeefill:#eeeeeefill:#eeeeee" fill="#F0E5E5"/>
	</g>
</g></g> </svg>
