<?xml version="1.0" encoding="utf-8"?>
<!-- Generator: Adobe Illustrator 19.0.0, SVG Export Plug-In . SVG Version: 6.00 Build 0)  -->
<svg version="1.1" id="Capa_1" xmlns="http://www.w3.org/2000/svg" xmlns:xlink="http://www.w3.org/1999/xlink" x="0px" y="0px"
	 viewBox="-223 25 512 512" style="enable-background:new -223 25 512 512;" xml:space="preserve">
<style type="text/css">
	.st0{fill:#FFAA00;}
</style>
<g>
	<g>
		<path class="st0" d="M244,98.6h-422c-24.8,0-45,20.2-45,45v274.9c0,24.8,20.2,45,45,45h422c24.8,0,45-20.2,45-45V143.6
			C289,118.7,268.8,98.6,244,98.6z M259,418.4c0,8.3-6.7,15-15,15h-422c-8.3,0-15-6.7-15-15V203h452V418.4z M259,173h-452v-29.4
			c0-8.3,6.7-15,15-15h422c8.3,0,15,6.7,15,15V173z"/>
	</g>
</g>
<g>
	<g>
		<path class="st0" d="M-51.3,242.3c-26.7,0-48.5,21.8-48.5,48.5v65.5c0,8.3,6.7,15,15,15s15-6.7,15-15v-28.4h37v28.4
			c0,8.3,6.7,15,15,15s15-6.7,15-15v-65.5C-2.7,264-24.5,242.3-51.3,242.3z M-32.7,297.8h-37v-7h0c0-10.2,8.3-18.5,18.5-18.5
			c10.2,0,18.5,8.3,18.5,18.5L-32.7,297.8L-32.7,297.8z"/>
	</g>
</g>
<g>
	<g>
		<path class="st0" d="M72.3,242.3H33c-8.3,0-15,6.7-15,15v99c0,8.3,6.7,15,15,15s15-6.7,15-15v-28.4h24.3
			c23.6,0,42.8-19.2,42.8-42.8C115,261.5,95.8,242.3,72.3,242.3z M72.3,297.8H48v-25.5h24.3c7,0,12.8,5.7,12.8,12.8
			C85,292.1,79.3,297.8,72.3,297.8z"/>
	</g>
</g>
<g>
	<g>
		<path class="st0" d="M150.8,242.3c-8.3,0-15,6.7-15,15v99c0,8.3,6.7,15,15,15s15-6.7,15-15v-99C165.8,249,159.1,242.3,150.8,242.3
			z"/>
	</g>
</g>
</svg>
