<?xml version="1.0" encoding="utf-8"?>
<!-- Generator: Adobe Illustrator 19.0.0, SVG Export Plug-In . SVG Version: 6.00 Build 0)  -->
<svg version="1.1" id="Layer_1" xmlns="http://www.w3.org/2000/svg" xmlns:xlink="http://www.w3.org/1999/xlink" x="0px" y="0px"
	 viewBox="-223 25 512 512" style="enable-background:new -223 25 512 512;" xml:space="preserve">
<style type="text/css">
	.st0{fill:#FFAA00;}
</style>
<g>
	<g>
		<path class="st0" d="M139.3,25H-73.3c-30.1,0-54.7,24.5-54.7,54.7v19.2v361.7v21.8c0,30.1,24.5,54.7,54.7,54.7h212.5
			c30.1,0,54.6-24.5,54.6-54.7v-21.8V98.8V79.7C193.9,49.5,169.4,25,139.3,25z M173,482.3c0,18.6-15.1,33.8-33.8,33.8H-73.3
			c-18.6,0-33.8-15.1-33.8-33.8V471h280L173,482.3L173,482.3z M173,450.1h-280V109.3h280L173,450.1L173,450.1z M173,88.4h-280v-8.7
			c0-18.6,15.1-33.8,33.8-33.8h212.5c18.6,0,33.8,15.1,33.8,33.8V88.4z"/>
	</g>
</g>
<g>
	<g>
		<path class="st0" d="M33,473.1c-11.3,0-20.5,9.2-20.5,20.5S21.7,514,33,514s20.5-9.2,20.5-20.5S44.3,473.1,33,473.1z M33,494
			c-0.2,0-0.4-0.2-0.4-0.4s0.2-0.4,0.4-0.4s0.4,0.2,0.4,0.4C33.4,493.8,33.2,494,33,494z"/>
	</g>
</g>
<g>
	<g>
		<path class="st0" d="M49.4,177.9c-5.7-1.1-11.2,2.6-12.3,8.2L4.8,350.8c-1.1,5.7,2.6,11.2,8.2,12.3c0.7,0.1,1.4,0.2,2,0.2
			c4.9,0,9.3-3.5,10.2-8.4l32.3-164.7C58.7,184.5,55,179,49.4,177.9z"/>
	</g>
</g>
<g>
	<g>
		<path class="st0" d="M131.1,270.7c0-0.2,0-0.3,0-0.5c0-0.2,0-0.3-0.1-0.5c0-0.2,0-0.3-0.1-0.5c0-0.2-0.1-0.3-0.1-0.5
			c0-0.2-0.1-0.3-0.1-0.5c0-0.2-0.1-0.3-0.2-0.5c-0.1-0.2-0.1-0.3-0.2-0.5c-0.1-0.1-0.1-0.3-0.2-0.4c-0.1-0.2-0.1-0.3-0.2-0.5
			c-0.1-0.1-0.1-0.2-0.2-0.4c-0.1-0.2-0.2-0.4-0.3-0.5c-0.1-0.1-0.1-0.2-0.2-0.3c-0.1-0.2-0.3-0.4-0.4-0.6c-0.1-0.1-0.1-0.1-0.2-0.2
			c-0.2-0.2-0.3-0.4-0.5-0.6l-48.5-48.5c-4.1-4.1-10.7-4.1-14.8,0c-4.1,4.1-4.1,10.7,0,14.8l41.1,41.1l-40.4,40.4
			c-4.1,4.1-4.1,10.7,0,14.8c2,2,4.7,3.1,7.4,3.1c2.7,0,5.4-1,7.4-3.1l47.7-47.8c0.2-0.2,0.4-0.4,0.5-0.6c0.1-0.1,0.1-0.1,0.2-0.2
			c0.1-0.2,0.3-0.4,0.4-0.6c0.1-0.1,0.1-0.2,0.2-0.3c0.1-0.2,0.2-0.4,0.3-0.5c0.1-0.1,0.1-0.2,0.2-0.3c0.1-0.2,0.2-0.3,0.2-0.5
			c0.1-0.1,0.1-0.3,0.2-0.4c0.1-0.2,0.1-0.3,0.2-0.5s0.1-0.3,0.2-0.5s0.1-0.3,0.1-0.5c0-0.2,0.1-0.3,0.1-0.5c0-0.2,0-0.3,0.1-0.5
			c0-0.2,0.1-0.3,0.1-0.5c0-0.2,0-0.3,0-0.5c0-0.2,0-0.3,0-0.5C131.1,271.1,131.1,270.9,131.1,270.7z"/>
	</g>
</g>
<g>
	<g>
		<path class="st0" d="M-2.9,311.6L-44,270.5l40.3-40.4c4.1-4.1,4.1-10.7,0-14.8c-4.1-4.1-10.7-4.1-14.8,0l-47.7,47.8
			c-0.2,0.2-0.3,0.4-0.5,0.6c-0.1,0.1-0.1,0.2-0.2,0.2c-0.1,0.2-0.3,0.3-0.4,0.5c-0.1,0.1-0.2,0.2-0.2,0.3c-0.1,0.2-0.2,0.3-0.3,0.5
			c-0.1,0.1-0.2,0.3-0.2,0.4c-0.1,0.1-0.1,0.3-0.2,0.4c-0.1,0.2-0.2,0.3-0.2,0.5c-0.1,0.1-0.1,0.3-0.1,0.4c-0.1,0.2-0.1,0.4-0.2,0.6
			c0,0.1-0.1,0.3-0.1,0.4c0,0.2-0.1,0.4-0.1,0.5c0,0.2,0,0.3-0.1,0.5c0,0.2-0.1,0.3-0.1,0.5c0,0.2,0,0.3,0,0.5c0,0.2,0,0.3,0,0.5
			c0,0.2,0,0.3,0,0.5c0,0.2,0,0.3,0,0.5s0,0.3,0.1,0.5c0,0.2,0,0.3,0.1,0.5c0,0.2,0.1,0.3,0.1,0.5c0,0.2,0.1,0.3,0.1,0.5
			c0.1,0.2,0.1,0.3,0.2,0.5c0.1,0.2,0.1,0.3,0.2,0.5c0.1,0.1,0.1,0.3,0.2,0.4c0.1,0.2,0.1,0.3,0.2,0.5c0.1,0.1,0.1,0.2,0.2,0.4
			c0.1,0.2,0.2,0.4,0.3,0.5c0.1,0.1,0.1,0.2,0.2,0.3c0.1,0.2,0.3,0.4,0.4,0.6c0.1,0.1,0.1,0.1,0.2,0.2c0.2,0.2,0.3,0.4,0.5,0.6
			l48.5,48.5c2,2,4.7,3.1,7.4,3.1c2.7,0,5.3-1,7.4-3.1C1.2,322.3,1.2,315.7-2.9,311.6z"/>
	</g>
</g>
</svg>
