<?xml version="1.0" encoding="utf-8"?>
<!-- Generator: Adobe Illustrator 19.0.0, SVG Export Plug-In . SVG Version: 6.00 Build 0)  -->
<svg version="1.1" id="Capa_1" xmlns="http://www.w3.org/2000/svg" xmlns:xlink="http://www.w3.org/1999/xlink" x="0px" y="0px"
	 viewBox="-283 84.8 392.2 392.2" style="enable-background:new -283 84.8 392.2 392.2;" xml:space="preserve">
<style type="text/css">
	.st0{fill:#FFAA00;}
</style>
<g>
	<g>
		<g>
			<path class="st0" d="M85.6,102.8h-345.1c-13,0-23.6,10.6-23.6,23.6v309.1c0,13,10.6,23.6,23.6,23.6H85.6
				c13,0,23.6-10.6,23.6-23.6V126.3C109.2,113.3,98.6,102.8,85.6,102.8z M14.6,142.3c0-4.8,3.9-8.7,8.7-8.7H32
				c4.8,0,8.7,3.9,8.7,8.7v9.9c0,4.8-3.9,8.7-8.7,8.7h-8.7c-4.8,0-8.7-3.9-8.7-8.7V142.3z M-25.9,142.3c0-4.8,3.9-8.7,8.7-8.7h8.7
				c4.8,0,8.7,3.9,8.7,8.7v9.9c0,4.8-3.9,8.7-8.7,8.7h-8.7c-4.8,0-8.7-3.9-8.7-8.7V142.3z M80.9,430.8h-335.6V187H80.9V430.8
				L80.9,430.8z M81.1,152.2c0,4.8-3.9,8.7-8.7,8.7h-8.7c-4.8,0-8.7-3.9-8.7-8.7v-9.9c0-4.8,3.9-8.7,8.7-8.7h8.7
				c4.8,0,8.7,3.9,8.7,8.7V152.2z"/>
			<path class="st0" d="M-198.8,318.1l63.1,29.3c1.6,0.8,3.4,1.1,5.2,1.1c2.3,0,4.6-0.7,6.6-1.9c3.5-2.3,5.7-6.1,5.7-10.3V336
				c0-4.8-2.8-9.1-7.1-11.1l-39.5-18.3l39.5-18.3c4.3-2,7.1-6.4,7.1-11.1v-0.3c0-4.2-2.1-8.1-5.7-10.3c-2-1.3-4.2-1.9-6.6-1.9
				c-1.8,0-3.6,0.4-5.2,1.1l-63.1,29.3c-4.3,2-7.1,6.4-7.1,11.1v0.9C-205.9,311.7-203.1,316.1-198.8,318.1z"/>
			<path class="st0" d="M-117.7,377.9c2.3,3.1,6,5,9.9,5h0.3c5.4,0,10-3.4,11.7-8.5l41.6-128.8c1.2-3.7,0.5-7.8-1.8-11
				c-2.3-3.1-6-5-9.9-5h-0.3c-5.4,0-10,3.4-11.7,8.5l-41.6,128.8C-120.7,370.6-120,374.7-117.7,377.9z"/>
			<path class="st0" d="M-55.5,277.1c0,4.7,2.8,9.1,7.1,11.1L-9,306.5l-39.5,18.3c-4.3,2-7.1,6.4-7.1,11.1v0.3
				c0,4.2,2.1,8.1,5.7,10.3c2,1.3,4.3,1.9,6.6,1.9c1.8,0,3.5-0.4,5.2-1.1L25,318.1c4.3-2,7.1-6.4,7.1-11.1v-0.9
				c0-4.7-2.8-9.1-7.1-11.1l-63.1-29.3c-1.6-0.7-3.4-1.1-5.2-1.1c-2.4,0-4.6,0.7-6.6,1.9c-3.6,2.3-5.7,6.1-5.7,10.3L-55.5,277.1
				L-55.5,277.1L-55.5,277.1z"/>
		</g>
	</g>
</g>
</svg>
