<?xml version="1.0" encoding="utf-8"?>
<!-- Generator: Adobe Illustrator 19.0.0, SVG Export Plug-In . SVG Version: 6.00 Build 0)  -->
<svg version="1.1" id="Capa_1" xmlns="http://www.w3.org/2000/svg" xmlns:xlink="http://www.w3.org/1999/xlink" x="0px" y="0px"
	 viewBox="-281 82.5 396.5 396.5" style="enable-background:new -281 82.5 396.5 396.5;" xml:space="preserve">
<style type="text/css">
	.st0{fill:#FFAA00;}
</style>
<g>
	<path class="st0" d="M23.4,413.4h-43.2c-1.6,0-2.8-1.3-2.8-2.8v-10.5c0-1.6-1.3-2.8-2.8-2.8h-60.5c-1.6,0-2.8,1.3-2.8,2.8v10.5
		c0,1.6-1.3,2.8-2.8,2.8h-32.5c-1.6,0-2.8,1.3-2.8,2.8v12.2c0,1.6,1.3,2.8,2.8,2.8H23.4c1.6,0,2.8-1.3,2.8-2.8v-12.2
		C26.3,414.7,25,413.4,23.4,413.4z"/>
	<g>
		<path class="st0" d="M96,128.9h-308.4c-10.7,0-19.5,8.7-19.5,19.5c0,0,0,37.1,0,50.8c0,6.7-0.5,7.7,4,7.7c2.4,0,5,0,7.7,0
			c3.8,0,3-0.9,3-7.8c0-13.6,0-50.6,0-50.6c0-2.6,2.2-4.7,4.7-4.7H96c2.6,0,4.7,2.2,4.7,4.7v190h-219.9c0,0-7.7,0-7.7,10
			c0,5.9,0,17.8,0,23.8c0,10,8,10,8,10H96c10.7,0,19.5-8.7,19.5-19.5V148.3C115.5,137.6,106.8,128.9,96,128.9z M-58.2,365.3
			c-4.8,0-8.8-3.9-8.8-8.8s3.9-8.8,8.8-8.8c4.8,0,8.8,3.9,8.8,8.8S-53.3,365.3-58.2,365.3z"/>
		<path class="st0" d="M-156.9,224.1h-111.6c-6.9,0-12.6,5.6-12.6,12.6v183.4c0,6.9,5.6,12.6,12.6,12.6h111.6
			c6.9,0,12.6-5.6,12.6-12.6V236.7C-144.3,229.8-150,224.1-156.9,224.1z M-226.4,236.9h27.5c1.3,0,2.4,1.1,2.4,2.4
			c0,1.3-1.1,2.4-2.4,2.4h-27.5c-1.3,0-2.4-1.1-2.4-2.4C-228.8,238-227.7,236.9-226.4,236.9z M-212.8,423.8c-3.6,0-6.5-2.9-6.5-6.5
			s2.9-6.5,6.5-6.5s6.5,2.9,6.5,6.5S-209.2,423.8-212.8,423.8z M-155.1,404.7c0,1.7-1.3,3-3,3h-109.1c-1.6,0-3-1.4-3-3V252.3
			c0-1.7,1.3-3,3-3h109.1c1.6,0,3,1.4,3,3C-155.1,252.3-155.1,404.7-155.1,404.7z"/>
	</g>
</g>
</svg>
