<?xml version="1.0" encoding="utf-8"?>
<!-- Generator: Adobe Illustrator 19.0.0, SVG Export Plug-In . SVG Version: 6.00 Build 0)  -->
<svg version="1.1" id="Capa_1" xmlns="http://www.w3.org/2000/svg" xmlns:xlink="http://www.w3.org/1999/xlink" x="0px" y="0px"
	 viewBox="-434 235.8 90.2 90.2" style="enable-background:new -434 235.8 90.2 90.2;" xml:space="preserve">
<style type="text/css">
	.st0{fill:#FFAA00;}
</style>
<g>
	<path id="WordPress__x28_alt_x29_" class="st0" d="M-428.8,259c7.5-14,22.6-23.2,39.9-23.2c11.2,0,21.5,4.8,29.4,11.5
		c-2.3-0.4-4.7,0.1-7.2,1.5c-5.8,3.3-7.7,12.7-0.2,17.5c4.7,2.9,6.4,10.3,6.2,14.8c-0.2,4.5-10.9,25.1-10.9,25.1l-10.5-36
		c0,0-0.4-2.5-0.4-3.3c0-0.9,0.3-2,0.9-2.7c0.4-0.4,1-1.3,1.7-1.3h5v-4h-27v4h0.8c0.9,0,1.7,1.2,2.6,2c1,1,2.2,4.8,3.7,8.8l3.9,12.9
		l-8.5,19.6l-9.3-39.1c0,0,0.3-2.7,0.8-3.1c0.4-0.3,0.9-1.1,1.6-1.1h0.3v-4C-405.9,259-428.8,259-428.8,259z M-423.5,265.8
		c0,0-2.2-2.8-4.5-2.8h-2.4c-2.3,5-3.5,11.7-3.5,17.9c0,18.5,11.4,34.4,27.5,41.2L-423.5,265.8z M-350.2,258.6c0.9,4.1,0.7,9-1,14.4
		c-4.4,14.1-15.1,39.4-19.3,49.1c15.7-7,26.6-22.6,26.6-40.7C-343.9,273-346.2,265.3-350.2,258.6z M-388,296.6l-11.5,28.1
		c3.4,0.8,6.9,1.3,10.6,1.3c3.8,0,7.4-0.5,11-1.3L-388,296.6z"/>
</g>
</svg>
